<?xml version="1.0" encoding="UTF-8"?>
<svg id="Layer_1" data-name="Layer 1" xmlns="http://www.w3.org/2000/svg" viewBox="0 0 125.79 125.79">
  <defs>
    <style>
      .cls-1 {
        fill: #fff;
        stroke: #231f20;
        stroke-miterlimit: 10;
        stroke-width: .3px;
      }
    </style>
  </defs>
  <rect class="cls-1" x="53.52" y=".15" width="19.23" height="29.12" rx="7.14" ry="7.14"/>
  <rect class="cls-1" x="29.4" y="6.48" width="19.23" height="29.12" rx="7.14" ry="7.14" transform="translate(-5.3 22.33) rotate(-30)"/>
  <rect class="cls-1" x="11.67" y="24.03" width="19.23" height="29.12" rx="7.14" ry="7.14" transform="translate(-22.78 37.73) rotate(-60)"/>
  <rect class="cls-1" x="5.1" y="48.1" width="19.23" height="29.12" rx="7.14" ry="7.14" transform="translate(-47.95 77.37) rotate(-90)"/>
  <rect class="cls-1" x="11.43" y="72.22" width="19.23" height="29.12" rx="7.14" ry="7.14" transform="translate(-43.59 148.4) rotate(-120)"/>
  <rect class="cls-1" x="28.98" y="89.95" width="19.23" height="29.12" rx="7.14" ry="7.14" transform="translate(19.76 214.31) rotate(-150)"/>
  <rect class="cls-1" x="53.04" y="96.52" width="19.23" height="29.12" rx="7.14" ry="7.14" transform="translate(125.31 222.17) rotate(-180)"/>
  <rect class="cls-1" x="77.17" y="90.19" width="19.23" height="29.12" rx="7.14" ry="7.14" transform="translate(214.31 152.07) rotate(150)"/>
  <rect class="cls-1" x="94.89" y="72.64" width="19.23" height="29.12" rx="7.14" ry="7.14" transform="translate(232.28 40.29) rotate(120)"/>
  <rect class="cls-1" x="101.47" y="48.58" width="19.23" height="29.12" rx="7.14" ry="7.14" transform="translate(174.22 -47.95) rotate(90)"/>
  <rect class="cls-1" x="95.13" y="24.45" width="19.23" height="29.12" rx="7.14" ry="7.14" transform="translate(86.16 -71.21) rotate(60)"/>
  <rect class="cls-1" x="77.58" y="6.73" width="19.23" height="29.12" rx="7.14" ry="7.14" transform="translate(22.33 -40.75) rotate(30)"/>
</svg>